<svg xmlns="http://www.w3.org/2000/svg" viewBox="0 0 400 400">
  <rect width="400" height="400" fill="#F3F4F6"/>
  <ellipse cx="200" cy="330" rx="120" ry="14" fill="#000" opacity="0.05"/>
  
  <g>
    <path d="M138 96 L98 118 L62 190 L104 212 L118 186 L118 316 L282 316 L282 186 L296 212 L338 190 L302 118 L262 96 C250 120 218 128 200 128 C182 128 150 120 138 96 Z" fill="#1E3A5F"/>
    <path d="M166 96 L200 150 L234 96 L222 92 L200 126 L178 92 Z" fill="#13243b"/>
    <rect x="196" y="128" width="8" height="44" rx="4" fill="#13243b" opacity="0.85"/>
    <circle cx="200" cy="142" r="3" fill="#1E3A5F"/>
    <circle cx="200" cy="158" r="3" fill="#1E3A5F"/>
  </g>
</svg>